<svg width="56" height="57" viewBox="0 0 56 57" fill="none" xmlns="http://www.w3.org/2000/svg">
<path d="M28 56.5C42.9117 56.5 55 44.0759 55 28.75C55 13.4241 42.9117 1 28 1C13.0883 1 1 13.4241 1 28.75C1 44.0759 13.0883 56.5 28 56.5Z" fill="white"/>
<path d="M28.0011 0C12.5389 0 0 12.6221 0 28.1949C0 40.654 8.02345 51.2223 19.1479 54.9496C20.5466 55.21 21.0616 54.3382 21.0616 53.5932C21.0616 52.9206 21.0346 50.6992 21.0233 48.3441C13.2337 50.0493 11.5899 45.0176 11.5899 45.0176C10.3172 41.7591 8.47994 40.8918 8.47994 40.8918C5.93888 39.1413 8.67108 39.1776 8.67108 39.1776C11.482 39.3768 12.9639 42.0829 12.9639 42.0829C15.4622 46.3944 19.5144 45.1467 21.111 44.4266C21.3629 42.6037 22.087 41.3605 22.8898 40.6563C16.6698 39.943 10.1328 37.5245 10.1328 26.7207C10.1328 23.6433 11.2256 21.1275 13.0179 19.1529C12.7278 18.4441 11.7698 15.5773 13.29 11.6937C13.29 11.6937 15.6421 10.9351 20.9918 14.5832C23.2248 13.9582 25.6197 13.6457 28.0011 13.6344C30.3803 13.6457 32.7774 13.9582 35.0149 14.5832C40.3601 10.9351 42.7078 11.6937 42.7078 11.6937C44.2324 15.5773 43.2722 18.4464 42.9821 19.1551C44.7766 21.1298 45.8627 23.6456 45.8627 26.723C45.8627 37.5517 39.3122 39.9384 33.0765 40.6359C34.0817 41.51 34.9767 43.2264 34.9767 45.8577C34.9767 49.6303 34.9452 52.667 34.9452 53.5954C34.9452 54.345 35.4489 55.2259 36.8678 54.9473C47.9878 51.2155 56 40.6495 56 28.1949C56 12.6221 43.4634 0 28.0011 0Z" fill="#5C6BC0"/>
</svg>
