<svg width="56" height="56" viewBox="0 0 56 56" fill="none" xmlns="http://www.w3.org/2000/svg">
<path d="M28 56C43.464 56 56 43.464 56 28C56 12.536 43.464 0 28 0C12.536 0 0 12.536 0 28C0 43.464 12.536 56 28 56Z" fill="url(#paint0_linear_59_606)"/>
<path d="M36.0207 45.5H19.9793C14.7525 45.5 10.5 41.2479 10.5 36.0207V19.9793C10.5 14.7521 14.7525 10.5 19.9793 10.5H36.0207C41.2479 10.5 45.5 14.7521 45.5 19.9793V36.0211C45.5 41.2479 41.2479 45.5 36.0207 45.5ZM19.9793 13.4168C16.3608 13.4168 13.4168 16.3608 13.4168 19.9793V36.0211C13.4168 39.6397 16.3608 42.5836 19.9793 42.5836H36.0207C39.6392 42.5836 42.5832 39.6397 42.5832 36.0211V19.9793C42.5832 16.3608 39.6392 13.4168 36.0207 13.4168H19.9793Z" fill="white"/>
<path d="M28 36.75C23.1753 36.75 19.25 32.8243 19.25 28C19.25 23.1748 23.1753 19.25 28 19.25C32.8247 19.25 36.75 23.1748 36.75 28C36.75 32.8243 32.8247 36.75 28 36.75ZM28 22.1668C24.7835 22.1668 22.1668 24.7835 22.1668 28C22.1668 31.2169 24.7835 33.8332 28 33.8332C31.2165 33.8332 33.8332 31.2169 33.8332 28C33.8332 24.7835 31.2169 22.1668 28 22.1668Z" fill="white"/>
<path d="M37.2971 20.7082C38.4044 20.7082 39.3021 19.8105 39.3021 18.7031C39.3021 17.5958 38.4044 16.6981 37.2971 16.6981C36.1897 16.6981 35.292 17.5958 35.292 18.7031C35.292 19.8105 36.1897 20.7082 37.2971 20.7082Z" fill="white"/>
<defs>
<linearGradient id="paint0_linear_59_606" x1="11.9388" y1="50.9384" x2="44.0617" y2="5.06205" gradientUnits="userSpaceOnUse">
<stop stop-color="#FFB900"/>
<stop offset="1" stop-color="#9100EB"/>
</linearGradient>
</defs>
</svg>
