<svg width="56" height="56" viewBox="0 0 56 56" fill="none" xmlns="http://www.w3.org/2000/svg">
<circle cx="27.5" cy="28.5" r="22.5" fill="white"/>
<path d="M28 0C12.536 0 0 12.536 0 28C0 43.464 12.536 56 28 56C43.464 56 56 43.464 56 28C56 12.536 43.464 0 28 0ZM20.0632 41.8542H13.8229V22.2745H20.0632V41.8542ZM16.9431 19.7102C16.2487 19.7102 15.5699 19.5043 14.9925 19.1186C14.4151 18.7328 13.9651 18.1844 13.6994 17.5429C13.4336 16.9013 13.3641 16.1954 13.4996 15.5144C13.6351 14.8333 13.9694 14.2077 14.4605 13.7167C14.9515 13.2257 15.5771 12.8913 16.2581 12.7558C16.9392 12.6204 17.6451 12.6899 18.2866 12.9556C18.9282 13.2214 19.4765 13.6714 19.8623 14.2487C20.2481 14.8261 20.454 15.5049 20.454 16.1993C20.454 17.1305 20.0841 18.0235 19.4257 18.6819C18.7672 19.3403 17.8742 19.7102 16.9431 19.7102ZM42.5688 41.8542H36.4438V31.1484C36.4438 30.6044 36.5296 26.9977 33.4667 26.9977C32.9224 26.9842 32.3828 27.1021 31.8939 27.3416C31.4049 27.581 30.9809 27.9349 30.6578 28.3732C30.0953 29.1238 29.7948 30.0384 29.8027 30.9763V41.8538H23.6852V22.2745H29.5057V25.0225C30.8988 22.8852 32.6545 22.1028 34.3814 21.7879C37.4468 21.229 42.5682 23.0952 42.5682 28.6676L42.5688 41.8542Z" fill="url(#paint0_linear_76_2)"/>
<defs>
<linearGradient id="paint0_linear_76_2" x1="-0.0261411" y1="56.0261" x2="55.1586" y2="0.841422" gradientUnits="userSpaceOnUse">
<stop stop-color="#034A8A"/>
<stop offset="1" stop-color="#0068C9"/>
</linearGradient>
</defs>
</svg>
