<svg width="56" height="56" viewBox="0 0 56 56" fill="none" xmlns="http://www.w3.org/2000/svg">
<path d="M56 28C56 43.47 43.47 56 28 56C12.53 56 0 43.47 0 28C0 12.53 12.53 0 28 0C43.47 0 56 12.53 56 28Z" fill="url(#paint0_linear_59_600)"/>
<path d="M22.8666 40.8333C21.9566 40.8333 22.12 40.4833 21.7933 39.62L19.1333 30.8467L35.6533 20.5333L37.59 21.0467L35.98 25.4333L22.8666 40.8333Z" fill="#C8DAEA"/>
<path d="M22.8667 40.8334C23.5667 40.8334 23.87 40.5067 24.2667 40.1334C24.8734 39.55 32.6667 31.9667 32.6667 31.9667L27.8834 30.8L23.45 33.6L22.8667 40.6V40.8334Z" fill="#A9C9DD"/>
<path d="M23.3332 33.6934L34.6265 42.0234C35.9099 42.7234 36.8432 42.3734 37.1699 40.8334L41.7665 19.18C42.2332 17.29 41.0432 16.45 39.8065 17.01L12.8332 27.4167C10.9899 28.1634 11.0132 29.19 12.5065 29.6334L19.4365 31.8034L35.4665 21.7C36.2132 21.2334 36.9132 21.49 36.3532 22.0034L23.3332 33.6934Z" fill="url(#paint1_linear_59_600)"/>
<defs>
<linearGradient id="paint0_linear_59_600" x1="36.2063" y1="8.85033" x2="22.2063" y2="41.5165" gradientUnits="userSpaceOnUse">
<stop stop-color="#37AEE2"/>
<stop offset="1" stop-color="#1E96C8"/>
</linearGradient>
<linearGradient id="paint1_linear_59_600" x1="30.0978" y1="28.8762" x2="35.9311" y2="38.2095" gradientUnits="userSpaceOnUse">
<stop stop-color="#EFF7FC"/>
<stop offset="1" stop-color="white"/>
</linearGradient>
</defs>
</svg>
