<svg width="57" height="56" viewBox="0 0 57 56" fill="none" xmlns="http://www.w3.org/2000/svg">
<path d="M56.5 28C56.5 43.47 43.97 56 28.5 56C13.03 56 0.5 43.47 0.5 28C0.5 12.53 13.03 0 28.5 0C43.97 0 56.5 12.53 56.5 28Z" fill="url(#paint0_linear_59_605)"/>
<path d="M23.3666 40.8333C22.4566 40.8333 22.62 40.4833 22.2933 39.62L19.6333 30.8467L36.1533 20.5333L38.09 21.0467L36.48 25.4333L23.3666 40.8333Z" fill="#C8DAEA"/>
<path d="M23.3667 40.8334C24.0667 40.8334 24.37 40.5067 24.7667 40.1334C25.3734 39.55 33.1667 31.9667 33.1667 31.9667L28.3834 30.8L23.95 33.6L23.3667 40.6V40.8334Z" fill="#A9C9DD"/>
<path d="M23.8332 33.6934L35.1265 42.0234C36.4099 42.7234 37.3432 42.3734 37.6699 40.8334L42.2665 19.18C42.7332 17.29 41.5432 16.45 40.3065 17.01L13.3332 27.4167C11.4899 28.1634 11.5132 29.19 13.0065 29.6334L19.9365 31.8034L35.9665 21.7C36.7132 21.2334 37.4132 21.49 36.8532 22.0034L23.8332 33.6934Z" fill="url(#paint1_linear_59_605)"/>
<defs>
<linearGradient id="paint0_linear_59_605" x1="36.7063" y1="8.85033" x2="22.7063" y2="41.5165" gradientUnits="userSpaceOnUse">
<stop stop-color="#6A37E2"/>
<stop offset="1" stop-color="#4F19A1"/>
</linearGradient>
<linearGradient id="paint1_linear_59_605" x1="30.5978" y1="28.8762" x2="36.4311" y2="38.2095" gradientUnits="userSpaceOnUse">
<stop stop-color="#EFF7FC"/>
<stop offset="1" stop-color="white"/>
</linearGradient>
</defs>
</svg>
