<svg width="56" height="56" viewBox="0 0 56 56" fill="none" xmlns="http://www.w3.org/2000/svg">
<path d="M28 56C43.464 56 56 43.464 56 28C56 12.536 43.464 0 28 0C12.536 0 0 12.536 0 28C0 43.464 12.536 56 28 56Z" fill="#25D366"/>
<path d="M40.4014 15.5268C37.1105 12.2325 32.7351 10.4177 28.0731 10.4155C18.4682 10.4155 10.6492 18.2328 10.6461 27.8416C10.6444 30.9137 11.4472 33.9119 12.9719 36.5535L10.5 45.5844L19.7378 43.1615C22.2836 44.5488 25.1493 45.2808 28.0661 45.2821H28.0735C37.6784 45.2821 45.4961 37.4635 45.5 27.8552C45.5022 23.1993 43.6905 18.8208 40.4014 15.5268ZM28.0735 42.3386H28.0678C25.4677 42.3377 22.9189 41.6395 20.6946 40.32L20.1657 40.0058L14.6838 41.4439L16.1464 36.0994L15.8021 35.5499C14.3517 33.2443 13.5857 30.5795 13.5874 27.8416C13.5901 19.8559 20.0883 13.3586 28.0779 13.3586C31.9471 13.3595 35.5832 14.8684 38.3184 17.6067C41.0532 20.3446 42.5583 23.9833 42.5574 27.8538C42.5548 35.8408 36.0566 42.3386 28.0735 42.3386ZM36.0185 31.4908C35.5828 31.2725 33.4421 30.2203 33.0426 30.0737C32.6432 29.9285 32.354 29.8563 32.0635 30.292C31.773 30.7278 30.9387 31.7091 30.6841 31.9996C30.4303 32.2901 30.1766 32.3268 29.7408 32.1085C29.3051 31.8902 27.9024 31.4308 26.2404 29.9468C24.9454 28.7932 24.0712 27.366 23.8175 26.9303C23.5637 26.4945 23.7904 26.2596 24.0087 26.0422C24.2047 25.847 24.4444 25.5338 24.6619 25.2792C24.8793 25.0245 24.9519 24.843 25.0972 24.5529C25.2424 24.2624 25.1703 24.0082 25.0609 23.7903C24.9515 23.572 24.0809 21.4287 23.7186 20.5568C23.3647 19.7076 23.0059 19.8227 22.7391 19.8095C22.4844 19.7973 22.1944 19.7938 21.9043 19.7938C21.6143 19.7938 21.1422 19.9027 20.7432 20.3389C20.3446 20.7747 19.2194 21.8277 19.2194 23.9719C19.2194 26.1148 20.7795 28.1859 20.9974 28.476C21.2153 28.766 24.0678 33.1651 28.4358 35.0512C29.4744 35.4992 30.2859 35.7673 30.9181 35.9686C31.9611 36.3007 32.9105 36.253 33.6613 36.141C34.4978 36.0163 36.2372 35.0879 36.6008 34.0707C36.9635 33.054 36.9635 32.1825 36.8537 32.0005C36.7439 31.818 36.4534 31.7091 36.0185 31.4908Z" fill="white"/>
</svg>
