<?xml version="1.0" encoding="utf-8"?><svg xmlns="http://www.w3.org/2000/svg" xmlns:xlink="http://www.w3.org/1999/xlink"><symbol fill="none" viewBox="0 0 56 57" id="static--logo--github" xmlns="http://www.w3.org/2000/svg"><path d="M28 56.5c14.912 0 27-12.424 27-27.75S42.912 1 28 1 1 13.424 1 28.75 13.088 56.5 28 56.5Z" fill="#fff"/><path d="M28.001 0C12.54 0 0 12.622 0 28.195 0 40.654 8.023 51.222 19.148 54.95c1.399.26 1.914-.612 1.914-1.357 0-.672-.027-2.894-.039-5.249-7.79 1.705-9.433-3.326-9.433-3.326-1.273-3.259-3.11-4.126-3.11-4.126-2.541-1.75.191-1.714.191-1.714 2.811.199 4.293 2.905 4.293 2.905 2.498 4.311 6.55 3.064 8.147 2.344.252-1.823.976-3.066 1.779-3.77-6.22-.714-12.757-3.132-12.757-13.936 0-3.078 1.093-5.593 2.885-7.568-.29-.709-1.248-3.576.272-7.46 0 0 2.352-.758 7.702 2.89 2.233-.625 4.628-.937 7.01-.949 2.378.012 4.775.324 7.013.95 5.345-3.649 7.693-2.89 7.693-2.89 1.524 3.883.564 6.752.274 7.461 1.795 1.975 2.88 4.49 2.88 7.568 0 10.829-6.55 13.215-12.785 13.913 1.005.874 1.9 2.59 1.9 5.222 0 3.772-.032 6.809-.032 7.737 0 .75.504 1.63 1.923 1.352C47.988 51.215 56 40.65 56 28.195 56 12.622 43.463 0 28.001 0Z" fill="#5C6BC0"/></symbol><symbol fill="none" viewBox="0 0 56 56" id="static--logo--instagram" xmlns="http://www.w3.org/2000/svg"><path d="M28 56c15.464 0 28-12.536 28-28S43.464 0 28 0 0 12.536 0 28s12.536 28 28 28Z" fill="url(#ba)"/><path d="M36.02 45.5H19.98c-5.228 0-9.48-4.252-9.48-9.48V19.98c0-5.228 4.252-9.48 9.48-9.48h16.04c5.228 0 9.48 4.252 9.48 9.48v16.04c0 5.227-4.252 9.479-9.48 9.479ZM19.98 13.417a6.57 6.57 0 0 0-6.563 6.562v16.042a6.57 6.57 0 0 0 6.562 6.563h16.042a6.57 6.57 0 0 0 6.562-6.563V19.98a6.57 6.57 0 0 0-6.562-6.562H19.979Z" fill="#fff"/><path d="M28 36.75c-4.825 0-8.75-3.926-8.75-8.75 0-4.825 3.925-8.75 8.75-8.75s8.75 3.925 8.75 8.75c0 4.824-3.925 8.75-8.75 8.75Zm0-14.583A5.84 5.84 0 0 0 22.167 28 5.84 5.84 0 0 0 28 33.833 5.84 5.84 0 0 0 33.833 28 5.84 5.84 0 0 0 28 22.167Zm9.297-1.459a2.005 2.005 0 1 0 0-4.01 2.005 2.005 0 0 0 0 4.01Z" fill="#fff"/><defs><linearGradient id="ba" x1="11.939" y1="50.938" x2="44.062" y2="5.062" gradientUnits="userSpaceOnUse"><stop stop-color="#FFB900"/><stop offset="1" stop-color="#9100EB"/></linearGradient></defs></symbol><symbol fill="none" viewBox="0 0 56 56" id="static--logo--linkedin" xmlns="http://www.w3.org/2000/svg"><circle cx="27.5" cy="28.5" r="22.5" fill="#fff"/><path d="M28 0C12.536 0 0 12.536 0 28s12.536 28 28 28 28-12.536 28-28S43.464 0 28 0Zm-7.937 41.854h-6.24v-19.58h6.24v19.58Zm-3.12-22.144a3.512 3.512 0 1 1 0-7.023 3.512 3.512 0 0 1 0 7.023ZM42.57 41.854h-6.125V31.148c0-.544.086-4.15-2.977-4.15a3.384 3.384 0 0 0-2.81 1.375 4.28 4.28 0 0 0-.854 2.603v10.878h-6.118v-19.58h5.82v2.748c1.394-2.137 3.15-2.92 4.876-3.234 3.066-.559 8.187 1.307 8.187 6.88v13.186Z" fill="url(#ca)"/><defs><linearGradient id="ca" x1="-.026" y1="56.026" x2="55.159" y2=".841" gradientUnits="userSpaceOnUse"><stop stop-color="#034A8A"/><stop offset="1" stop-color="#0068C9"/></linearGradient></defs></symbol><symbol fill="none" viewBox="0 0 56 56" id="static--logo--telegram" xmlns="http://www.w3.org/2000/svg"><path d="M56 28c0 15.47-12.53 28-28 28S0 43.47 0 28 12.53 0 28 0s28 12.53 28 28Z" fill="#37AEE2"/><path d="M22.867 40.833c-.91 0-.747-.35-1.074-1.213l-2.66-8.773 16.52-10.314 1.937.514-1.61 4.386-13.113 15.4Z" fill="#C8DAEA"/><path d="M22.867 40.833c.7 0 1.003-.326 1.4-.7.606-.583 8.4-8.166 8.4-8.166L27.883 30.8l-4.433 2.8-.583 7v.233Z" fill="#A9C9DD"/><path d="m23.333 33.693 11.294 8.33c1.283.7 2.216.35 2.543-1.19l4.596-21.653c.467-1.89-.723-2.73-1.96-2.17L12.834 27.417c-1.843.746-1.82 1.773-.326 2.216l6.93 2.17L35.466 21.7c.746-.467 1.446-.21.886.303l-13.02 11.69Z" fill="url(#da)"/><defs><linearGradient id="da" x1="30.098" y1="28.876" x2="35.931" y2="38.209" gradientUnits="userSpaceOnUse"><stop stop-color="#EFF7FC"/><stop offset="1" stop-color="#fff"/></linearGradient></defs></symbol><symbol fill="none" viewBox="0 0 57 56" id="static--logo--tg-channel" xmlns="http://www.w3.org/2000/svg"><path d="M56.5 28c0 15.47-12.53 28-28 28S.5 43.47.5 28s12.53-28 28-28 28 12.53 28 28Z" fill="url(#ea)"/><path d="M23.367 40.833c-.91 0-.747-.35-1.074-1.213l-2.66-8.773 16.52-10.314 1.937.514-1.61 4.386-13.113 15.4Z" fill="#C8DAEA"/><path d="M23.367 40.833c.7 0 1.003-.326 1.4-.7.606-.583 8.4-8.166 8.4-8.166L28.383 30.8l-4.433 2.8-.583 7v.233Z" fill="#A9C9DD"/><path d="m23.833 33.693 11.294 8.33c1.283.7 2.216.35 2.543-1.19l4.596-21.653c.467-1.89-.723-2.73-1.96-2.17L13.334 27.417c-1.843.746-1.82 1.773-.326 2.216l6.93 2.17L35.966 21.7c.746-.467 1.446-.21.886.303l-13.02 11.69Z" fill="url(#eb)"/><defs><linearGradient id="ea" x1="36.706" y1="8.85" x2="22.706" y2="41.517" gradientUnits="userSpaceOnUse"><stop stop-color="#6A37E2"/><stop offset="1" stop-color="#4F19A1"/></linearGradient><linearGradient id="eb" x1="30.598" y1="28.876" x2="36.431" y2="38.209" gradientUnits="userSpaceOnUse"><stop stop-color="#EFF7FC"/><stop offset="1" stop-color="#fff"/></linearGradient></defs></symbol><symbol fill="none" viewBox="0 0 56 56" id="static--logo--whatsapp" xmlns="http://www.w3.org/2000/svg"><path d="M28 56c15.464 0 28-12.536 28-28S43.464 0 28 0 0 12.536 0 28s12.536 28 28 28Z" fill="#25D366"/><path d="M40.401 15.527a17.317 17.317 0 0 0-12.328-5.111c-9.605 0-17.424 7.817-17.427 17.426a17.388 17.388 0 0 0 2.326 8.712l-2.472 9.03 9.238-2.423a17.429 17.429 0 0 0 8.328 2.121h.008c9.604 0 17.422-7.818 17.426-17.427a17.324 17.324 0 0 0-5.099-12.328ZM28.073 42.339h-.005c-2.6-.001-5.15-.7-7.373-2.019l-.53-.314-5.481 1.438 1.462-5.345-.344-.55a14.436 14.436 0 0 1-2.215-7.707c.003-7.986 6.501-14.483 14.49-14.483 3.87 0 7.506 1.51 10.241 4.248a14.4 14.4 0 0 1 4.24 10.247c-.003 7.987-6.501 14.485-14.485 14.485ZM36.02 31.49c-.436-.218-2.577-1.27-2.976-1.417-.4-.146-.689-.218-.98.218-.29.436-1.124 1.417-1.379 1.708-.254.29-.507.327-.943.108-.436-.218-1.839-.677-3.5-2.161-1.296-1.154-2.17-2.581-2.424-3.017-.253-.436-.027-.67.192-.888.196-.195.435-.508.653-.763.217-.255.29-.436.435-.726.145-.29.073-.545-.036-.763-.11-.218-.98-2.361-1.342-3.233-.354-.85-.713-.734-.98-.747a18.05 18.05 0 0 0-.835-.016c-.29 0-.762.109-1.16.545-.4.436-1.525 1.489-1.525 3.633 0 2.143 1.56 4.214 1.778 4.504.218.29 3.07 4.69 7.439 6.575 1.038.448 1.85.716 2.482.918 1.043.332 1.992.284 2.743.172.837-.125 2.576-1.053 2.94-2.07.363-1.017.363-1.889.253-2.07-.11-.183-.4-.292-.835-.51Z" fill="#fff"/></symbol><symbol fill="none" viewBox="0 0 56 56" id="static--logo--x" xmlns="http://www.w3.org/2000/svg"><rect width="56" height="56" rx="28" fill="#000"/><path d="M31.143 25.475 43.43 11.5h-2.91L29.845 23.631 21.327 11.5H11.5l12.884 18.347L11.5 44.5h2.911l11.264-12.814L34.673 44.5H44.5L31.143 25.475Zm-3.988 4.533-1.308-1.828-10.386-14.533h4.472l8.385 11.733 1.301 1.828 10.898 15.25h-4.472l-8.89-12.45Z" fill="#fff"/></symbol></svg>